# xmcd
#
# Track frame offsets:
#	150
#	20019
#	31420
#	47047
#	61301
#	72318
#	91564
#	106609
#	128815
#	141143
#	160461
#	174852
#	185554
#	199032
#	217482
#	239441
#	261379
#	277200
#	290245
#	304258
#	316547
#	328318
#
# Disc length: 4553
#
# Revision: 1
# Processed by: cddbd v1.5.1PL0 Copyright (c) Steve Scherf et al.
# Submitted via: EasyCDDAExtractor 4.6.0.1
# Normalized: r0:TDELIM( - )
#
DISCID=5511c716
DTITLE=여러명 - 대박이야!! (유희 2집)
DYEAR=2001
DGENRE=대박
TTITLE0=ABBA - Happy new year
TTITLE1=Beatles - Girl
TTITLE2=Bee Gees - Don't Forget to Remember
TTITLE3=Boys to man - It so hard to say goodbye to yesterday
TTITLE4=Connie Francis - Vacation
TTITLE5=Culture Club - Karma Chameleon
TTITLE6=Dawn - Tie A Yellow Ribbon Round The Old Oak Tree
TTITLE7=Demis Roussos and Aprodite's - Spring, Summer, Winter and Fall
TTITLE8=Elvis presley - love me tender
TTITLE9=Fastball - The Way
TTITLE10=Le Blanc And Carr - Falling
TTITLE11=Neil Sedaka - Oh Carol
TTITLE12=Patti Page - Mockingbird Hill
TTITLE13=Randy Vanwarmer - Just when I need you most
TTITLE14=Rialto - MondayMorning519
TTITLE15=Richard Sanders - Reality
TTITLE16=Roy Orbison - You got it
TTITLE17=Shaun Cassidy - Da Doo Ron Ron
TTITLE18=Stevie Wonder - yesterme, yesteryou, yesterday
TTITLE19=Tammy Wynette - Stand By Your Man
TTITLE20=The cascade - Rhythm of the rain
TTITLE21=Tony Orlando and Dawn - Knock Three Times
EXTD=
EXTT0=
EXTT1=
EXTT2=
EXTT3=
EXTT4=
EXTT5=
EXTT6=
EXTT7=
EXTT8=
EXTT9=
EXTT10=
EXTT11=
EXTT12=
EXTT13=
EXTT14=
EXTT15=
EXTT16=
EXTT17=
EXTT18=
EXTT19=
EXTT20=
EXTT21=
PLAYORDER=
